<?xml version="1.0" encoding="UTF-8"?>
<svg version="1.1" xmlns="http://www.w3.org/2000/svg" width="512" height="512">
<path d="M0 0 C3.48209317 0.00478262 6.96413382 -0.00782269 10.44620943 -0.01801741 C17.24734619 -0.03511307 24.04839018 -0.03606464 30.84954283 -0.03080451 C36.38484915 -0.02674369 41.92012832 -0.02822891 47.45543337 -0.03355277 C48.24679511 -0.03430119 49.03815685 -0.03504961 49.85349925 -0.03582071 C51.46177608 -0.03735238 53.07005291 -0.03889073 54.67832974 -0.04043568 C69.72213716 -0.05412771 84.76589241 -0.04874665 99.80969861 -0.03725047 C113.53012424 -0.02732494 127.25041487 -0.04025286 140.97081968 -0.06418466 C155.10563188 -0.08865088 169.24038141 -0.09816492 183.37521434 -0.09153193 C191.29210524 -0.08805592 199.2088925 -0.09016367 207.12576723 -0.10778296 C213.86618255 -0.12259964 220.60642124 -0.12301839 227.34683344 -0.10571205 C230.77628414 -0.09727601 234.20542062 -0.09486733 237.63485384 -0.1103636 C256.2259315 -0.17678101 274.3338109 0.71495553 291.83774996 7.59433305 C292.60812593 7.88912553 293.37850191 8.18391801 294.17222261 8.4876436 C325.37503496 20.86426764 350.65048267 45.68840576 364.20884371 76.31210649 C365.74160768 79.96519395 367.11248745 83.66083623 368.40024996 87.40683305 C368.63075045 88.06925004 368.86125093 88.73166704 369.09873629 89.41415727 C374.33453998 105.60034731 374.53369363 121.45944698 374.49458301 138.31908309 C374.48980039 141.80117627 374.5024057 145.28321691 374.51260042 148.76529253 C374.52969608 155.56642928 374.53064765 162.36747328 374.52538752 169.16862592 C374.5213267 174.70393225 374.52281192 180.23921141 374.52813578 185.77451646 C374.5288842 186.5658782 374.52963262 187.35723994 374.53040372 188.17258234 C374.53193539 189.78085918 374.53347374 191.38913601 374.53501869 192.99741283 C374.54871072 208.04122025 374.54332966 223.08497551 374.53183348 238.12878171 C374.52190795 251.84920733 374.53483587 265.56949796 374.55876767 279.28990278 C374.58323389 293.42471498 374.59274793 307.55946451 374.58611494 321.69429743 C374.58263893 329.61118834 374.58474668 337.52797559 374.60236597 345.44485033 C374.61718265 352.18526564 374.6176014 358.92550433 374.60029506 365.66591653 C374.59185902 369.09536723 374.58945034 372.52450372 374.60494661 375.95393693 C374.67136403 394.5450146 373.77962748 412.652894 366.90024996 430.15683305 C366.60545748 430.92720903 366.310665 431.69758501 366.00693941 432.49130571 C356.13486544 457.37987552 337.96730112 479.44357757 315.08774996 493.40683305 C314.01524996 494.09003618 312.94274996 494.7732393 311.83774996 495.47714555 C305.45004956 499.3659539 298.94823783 502.48484403 291.96274996 505.15683305 C291.27874117 505.42640825 290.59473238 505.69598344 289.88999605 505.97372758 C271.57496724 512.61625088 252.95550458 512.98750368 233.69712496 512.92441118 C230.88921006 512.92764626 228.08132106 512.93682879 225.2734189 512.94565141 C218.48616735 512.96329401 211.69909425 512.95966107 204.91183615 512.94800085 C199.38806192 512.93890996 193.86433716 512.93776673 188.34055758 512.94209611 C187.54973779 512.94270905 186.75891801 512.94332198 185.944134 512.94395348 C184.33682329 512.94523258 182.7295126 512.94652944 181.12220192 512.94784385 C166.10506253 512.95920786 151.08802133 512.94620193 136.07089806 512.92464238 C123.22881 512.90677521 110.38686666 512.9098805 97.54478121 512.92831743 C82.57569806 512.94979842 67.60670065 512.95810962 52.63760424 512.94586837 C51.03671695 512.94459438 49.43582965 512.9433369 47.83494234 512.94209611 C47.04759258 512.94147901 46.26024282 512.94086191 45.44903398 512.94022611 C39.94182532 512.93679481 34.43467175 512.94255319 28.92747164 512.95201433 C22.20178323 512.96331652 15.47628117 512.96002387 8.75061369 512.93889135 C5.32917146 512.92848977 1.90829014 512.92627884 -1.51318693 512.93748796 C-22.88729031 513.00100847 -42.22548579 511.05828192 -61.91225004 502.40683305 C-62.56644926 502.12356157 -63.22064848 501.84029008 -63.89467192 501.54843462 C-93.98974488 488.26256094 -117.69643593 462.6852702 -129.78334379 432.21054399 C-130.63388989 429.95385314 -131.44074075 427.68745259 -132.22475004 425.40683305 C-132.57050077 424.41320756 -132.57050077 424.41320756 -132.92323637 423.39950883 C-138.15904006 407.2133188 -138.35819372 391.35421913 -138.31908309 374.49458301 C-138.31430048 371.01248984 -138.32690578 367.53044919 -138.33710051 364.04837358 C-138.35419617 357.24723682 -138.35514773 350.44619283 -138.3498876 343.64504018 C-138.34582678 338.10973386 -138.347312 332.5744547 -138.35263586 327.03914964 C-138.35338428 326.2477879 -138.3541327 325.45642616 -138.35490381 324.64108376 C-138.35643548 323.03280693 -138.35797382 321.4245301 -138.35951877 319.81625327 C-138.3732108 304.77244585 -138.36782974 289.7286906 -138.35633356 274.6848844 C-138.34640804 260.96445877 -138.35933595 247.24416814 -138.38326775 233.52376333 C-138.40773398 219.38895113 -138.41724801 205.2542016 -138.41061503 191.11936867 C-138.40713902 183.20247777 -138.40924677 175.28569051 -138.42686605 167.36881578 C-138.44168273 160.62840046 -138.44210148 153.88816178 -138.42479514 147.14774957 C-138.41635911 143.71829887 -138.41395042 140.28916239 -138.4294467 136.85972917 C-138.49586411 118.26865151 -137.60412757 100.16077211 -130.72475004 82.65683305 C-130.42995756 81.88645708 -130.13516508 81.1160811 -129.8314395 80.3223604 C-117.45481545 49.11954805 -92.63067734 23.84410034 -62.0069766 10.2857393 C-58.35388915 8.75297533 -54.65824686 7.38209556 -50.91225004 6.09433305 C-49.91862455 5.74858232 -49.91862455 5.74858232 -48.90492582 5.39584672 C-32.71873579 0.16004303 -16.85963612 -0.03911062 0 0 Z " fill="#00D264" transform="translate(137.91225004196167,-0.40683305263519287)"/>
<path d="M0 0 C0.8156543 0.15597656 1.63130859 0.31195313 2.47167969 0.47265625 C52.40880964 10.31068988 95.11589158 38.01858211 123.81542969 80.20166016 C127.17492317 85.30183102 130.11454994 90.6214728 133 96 C133.59554688 97.09699219 134.19109375 98.19398438 134.8046875 99.32421875 C155.69756419 139.29925615 159.70459875 186.84638868 148.25 230.3125 C147.53528474 232.55322893 146.78135895 234.78163073 146 237 C145.7426709 237.74958984 145.4853418 238.49917969 145.22021484 239.27148438 C136.56835188 264.22558715 124.19345471 286.74260058 106 306 C104.87037767 307.32941948 103.74520688 308.66263718 102.625 310 C72.48281589 344.34006819 25.59434529 362.62971857 -19 366 C-50.40841759 367.61903658 -86.51331773 363.59412359 -113.4296875 345.796875 C-119.28404577 341.96265245 -119.28404577 341.96265245 -126.0480957 341.29882812 C-127.18335693 341.62302734 -128.31861816 341.94722656 -129.48828125 342.28125 C-130.1535936 342.46496155 -130.81890594 342.6486731 -131.50437927 342.83795166 C-134.00946212 343.53709845 -136.50383128 344.26966747 -139 345 C-141.26877092 345.64638487 -143.53801383 346.2911144 -145.80761719 346.93457031 C-151.00496506 348.41310208 -156.19997798 349.89941514 -161.39257812 351.39453125 C-162.06127048 351.58700565 -162.72996284 351.77948006 -163.41891861 351.97778702 C-166.85243737 352.96682173 -170.28493637 353.95924507 -173.71606445 354.95654297 C-177.08443317 355.93523114 -180.45530847 356.90482303 -183.82795525 357.86865997 C-185.71034786 358.40936318 -187.58990462 358.95990832 -189.46937561 359.51068115 C-200.42889551 362.63372578 -200.42889551 362.63372578 -206 362 C-208.4375 360.4375 -208.4375 360.4375 -210 358 C-210.66277873 351.34534332 -208.72556626 345.36649283 -206.9375 339 C-206.62240479 337.85442627 -206.30730957 336.70885254 -205.98266602 335.52856445 C-203.38271707 326.16164282 -200.57034867 316.86446673 -197.7109375 307.57421875 C-195.96329868 301.89189023 -194.23955217 296.20358559 -192.5625 290.5 C-192.30331787 289.64559326 -192.04413574 288.79118652 -191.77709961 287.91088867 C-188.88856151 277.98507397 -190.37105828 272.40577814 -195.0625 263.375 C-203.24897681 246.92708587 -208.64028654 230.04258113 -212 212 C-212.22558594 210.86691406 -212.45117188 209.73382813 -212.68359375 208.56640625 C-220.55243599 161.62469222 -207.0485829 112.72904789 -179.76977539 74.39453125 C-150.49384689 34.20099783 -106.75526371 7.31238417 -57.65625 -0.75 C-38.99436239 -3.42833647 -18.52456669 -3.59497008 0 0 Z " fill="#00D264" transform="translate(294,66)"/>
<path d="M0 0 C3.48209317 0.00478262 6.96413382 -0.00782269 10.44620943 -0.01801741 C17.24734619 -0.03511307 24.04839018 -0.03606464 30.84954283 -0.03080451 C36.38484915 -0.02674369 41.92012832 -0.02822891 47.45543337 -0.03355277 C48.24679511 -0.03430119 49.03815685 -0.03504961 49.85349925 -0.03582071 C51.46177608 -0.03735238 53.07005291 -0.03889073 54.67832974 -0.04043568 C69.72213716 -0.05412771 84.76589241 -0.04874665 99.80969861 -0.03725047 C113.53012424 -0.02732494 127.25041487 -0.04025286 140.97081968 -0.06418466 C155.10563188 -0.08865088 169.24038141 -0.09816492 183.37521434 -0.09153193 C191.29210524 -0.08805592 199.2088925 -0.09016367 207.12576723 -0.10778296 C213.86618255 -0.12259964 220.60642124 -0.12301839 227.34683344 -0.10571205 C230.77628414 -0.09727601 234.20542062 -0.09486733 237.63485384 -0.1103636 C256.2259315 -0.17678101 274.3338109 0.71495553 291.83774996 7.59433305 C292.60812593 7.88912553 293.37850191 8.18391801 294.17222261 8.4876436 C325.37503496 20.86426764 350.65048267 45.68840576 364.20884371 76.31210649 C375.0024719 102.03692034 377.70190083 130.18470286 371.08774996 157.40683305 C370.87118746 158.37749712 370.65462496 159.34816118 370.43149996 160.3482393 C365.09284245 182.17953519 353.4552452 201.21874341 338.08774996 217.40683305 C337.20860933 218.33882524 336.32946871 219.27081743 335.42368746 220.2310518 C327.73317018 228.17069851 319.6591575 234.00248953 310.08774996 239.40683305 C309.99799898 238.67383989 309.908248 237.94084672 309.8157773 237.18564165 C303.4399904 186.28256588 283.27258678 138.2995204 242.03648043 105.78964555 C217.18756393 86.74644622 190.61799451 74.69540964 160.02524996 68.09433305 C159.28855074 67.93481157 158.55185152 67.77529008 157.79282808 67.61093462 C111.6794864 58.24351588 62.89301209 70.49810676 23.95884371 95.7857393 C8.22170137 106.28892043 -6.59412187 119.21119801 -17.91225004 134.40683305 C-18.31250395 134.9374434 -18.71275785 135.46805376 -19.12514067 136.01474321 C-25.4490567 144.43448856 -30.94096666 153.12848787 -35.91225004 162.40683305 C-36.51939848 163.53862993 -37.12654692 164.6704268 -37.75209379 165.83652055 C-42.74617959 175.47499686 -47.18555705 185.57887278 -49.85365629 196.1294893 C-50.9601633 199.55516968 -51.93081358 200.99769657 -54.53725004 203.40683305 C-55.2501016 204.07585649 -55.96295317 204.74487993 -56.69740629 205.4341768 C-59.44210606 207.87875067 -62.20378867 210.3018665 -64.98256254 212.7076143 C-71.73481664 218.6534251 -77.30860071 225.38658117 -82.91225004 232.40683305 C-83.77724993 233.45834339 -84.64315719 234.50910786 -85.50990629 235.5591768 C-93.1886356 244.96426169 -99.69843924 254.98535219 -105.91225004 265.40683305 C-106.28978422 266.03637895 -106.6673184 266.66592485 -107.05629301 267.3145479 C-121.00161738 290.92793182 -130.20433862 318.90897841 -134.03725004 345.96933305 C-134.29055082 347.68153032 -134.29055082 347.68153032 -134.54896879 349.42831743 C-135.56139337 356.40766956 -136.35663019 363.376378 -136.91225004 370.40683305 C-137.24225004 370.40683305 -137.57225004 370.40683305 -137.91225004 370.40683305 C-138.00371662 337.87961402 -138.07439985 305.3524324 -138.11651136 272.82511391 C-138.12151353 268.97540029 -138.12669088 265.12568692 -138.1319766 261.27597368 C-138.13302585 260.50964128 -138.13407509 259.74330887 -138.13515612 258.95375428 C-138.15250939 246.58382754 -138.1840187 234.213976 -138.22086123 221.84409371 C-138.25841268 209.1291023 -138.28051573 196.41414996 -138.28860402 183.69910538 C-138.29406253 175.86815709 -138.31123257 168.03742141 -138.34391591 160.20653865 C-138.36777902 154.17783675 -138.37003443 148.1493135 -138.36468077 142.1205591 C-138.36577208 139.66495913 -138.37360511 137.20935034 -138.38907194 134.75379884 C-138.49591017 116.9008921 -137.32595465 99.45298687 -130.72475004 82.65683305 C-130.42995756 81.88645708 -130.13516508 81.1160811 -129.8314395 80.3223604 C-117.45481545 49.11954805 -92.63067734 23.84410034 -62.0069766 10.2857393 C-58.35388915 8.75297533 -54.65824686 7.38209556 -50.91225004 6.09433305 C-49.91862455 5.74858232 -49.91862455 5.74858232 -48.90492582 5.39584672 C-32.71873579 0.16004303 -16.85963612 -0.03911062 0 0 Z " fill="#00EA78" transform="translate(137.91225004196167,-0.40683305263519287)"/>
<path d="M0 0 C0.8156543 0.15597656 1.63130859 0.31195313 2.47167969 0.47265625 C52.40880964 10.31068988 95.11589158 38.01858211 123.81542969 80.20166016 C127.17492317 85.30183102 130.11454994 90.6214728 133 96 C133.59554688 97.09699219 134.19109375 98.19398438 134.8046875 99.32421875 C155.69756419 139.29925615 159.70459875 186.84638868 148.25 230.3125 C147.53528474 232.55322893 146.78135895 234.78163073 146 237 C145.7426709 237.74958984 145.4853418 238.49917969 145.22021484 239.27148438 C136.56835188 264.22558715 124.19345471 286.74260058 106 306 C104.87037767 307.32941948 103.74520688 308.66263718 102.625 310 C72.48281589 344.34006819 25.59434529 362.62971857 -19 366 C-50.40841759 367.61903658 -86.51331773 363.59412359 -113.4296875 345.796875 C-119.28404577 341.96265245 -119.28404577 341.96265245 -126.0480957 341.29882812 C-127.18335693 341.62302734 -128.31861816 341.94722656 -129.48828125 342.28125 C-130.1535936 342.46496155 -130.81890594 342.6486731 -131.50437927 342.83795166 C-134.00946212 343.53709845 -136.50383128 344.26966747 -139 345 C-141.26877092 345.64638487 -143.53801383 346.2911144 -145.80761719 346.93457031 C-151.00496506 348.41310208 -156.19997798 349.89941514 -161.39257812 351.39453125 C-162.06127048 351.58700565 -162.72996284 351.77948006 -163.41891861 351.97778702 C-166.85243737 352.96682173 -170.28493637 353.95924507 -173.71606445 354.95654297 C-177.08443317 355.93523114 -180.45530847 356.90482303 -183.82795525 357.86865997 C-185.71034786 358.40936318 -187.58990462 358.95990832 -189.46937561 359.51068115 C-200.42889551 362.63372578 -200.42889551 362.63372578 -206 362 C-208.4375 360.4375 -208.4375 360.4375 -210 358 C-210.66277873 351.34534332 -208.72556626 345.36649283 -206.9375 339 C-206.62240479 337.85442627 -206.30730957 336.70885254 -205.98266602 335.52856445 C-203.38271707 326.16164282 -200.57034867 316.86446673 -197.7109375 307.57421875 C-195.96329868 301.89189023 -194.23955217 296.20358559 -192.5625 290.5 C-192.30331787 289.64559326 -192.04413574 288.79118652 -191.77709961 287.91088867 C-188.88856151 277.98507397 -190.37105828 272.40577814 -195.0625 263.375 C-203.24897681 246.92708587 -208.64028654 230.04258113 -212 212 C-212.22558594 210.86691406 -212.45117188 209.73382813 -212.68359375 208.56640625 C-220.55243599 161.62469222 -207.0485829 112.72904789 -179.76977539 74.39453125 C-150.49384689 34.20099783 -106.75526371 7.31238417 -57.65625 -0.75 C-38.99436239 -3.42833647 -18.52456669 -3.59497008 0 0 Z M-145.17822266 81.97558594 C-173.19582139 113.10958871 -184.05548961 153.86374229 -182 195 C-181.5876899 199.40569561 -180.89212193 203.66843942 -180 208 C-179.80535156 209.07765625 -179.61070312 210.1553125 -179.41015625 211.265625 C-176.61048255 225.77754313 -171.80067904 239.29301731 -164.9296875 252.3515625 C-164.61741211 252.94743164 -164.30513672 253.54330078 -163.98339844 254.15722656 C-163.29621334 255.44493091 -162.58944026 256.72228758 -161.86816406 257.99121094 C-157.11022463 266.69945364 -159.49914226 273.87115629 -162.0625 283 C-162.52970459 284.7020459 -162.52970459 284.7020459 -163.00634766 286.43847656 C-165.43793118 295.21167867 -168.04056887 303.93063071 -170.77758789 312.61328125 C-171.05465576 313.49886719 -171.33172363 314.38445312 -171.6171875 315.296875 C-171.98239502 316.44687988 -171.98239502 316.44687988 -172.35498047 317.62011719 C-173.10604889 320.39128109 -173.56648244 323.1634542 -174 326 C-164.70953793 323.77081362 -155.54058977 321.18600858 -146.375 318.5 C-145.02089174 318.10526834 -143.66672527 317.7107363 -142.3125 317.31640625 C-141.65163391 317.12353027 -140.99076782 316.9306543 -140.30987549 316.73193359 C-138.37463721 316.16753647 -136.43878926 315.60523115 -134.50292969 315.04296875 C-132.36975364 314.40783298 -130.24303578 313.74965321 -128.12988281 313.05078125 C-121.13264157 310.74809699 -114.78363244 309.35907974 -107.9296875 312.7578125 C-106.56902061 313.53106954 -105.21762771 314.3208286 -103.875 315.125 C-102.38595883 315.96135572 -100.89370362 316.79201255 -99.3984375 317.6171875 C-98.65948242 318.02549805 -97.92052734 318.43380859 -97.15917969 318.85449219 C-63.47532776 336.72475827 -22.8634071 338.46844305 13.25 328 C38.36738592 320.23234462 59.3080959 307.28963931 78 289 C78.66128906 288.38898438 79.32257813 287.77796875 80.00390625 287.1484375 C104.8562443 263.73765038 120.14650998 226.31837631 121.24966431 192.62683105 C121.70988047 175.47612346 121.89367092 158.59113619 117 142 C116.66097656 140.75089844 116.32195312 139.50179687 115.97265625 138.21484375 C104.6691813 100.60363705 77.84408484 67.77077104 43.59667969 48.74047852 C-20.83841068 14.13885865 -95.96000037 29.27628627 -145.17822266 81.97558594 Z " fill="#FCFEFD" transform="translate(294,66)"/>
<path d="M0 0 C0.33 0 0.66 0 1 0 C1.09177268 32.78200598 1.16214852 65.56397834 1.20426132 98.34608369 C1.2092635 102.22583985 1.21444085 106.10559577 1.21972656 109.98535156 C1.2207758 110.75766519 1.22182505 111.52997883 1.22290608 112.3256959 C1.24025995 124.79262022 1.27176961 137.25946994 1.30861118 149.72635016 C1.34616094 162.5407827 1.36826533 175.35517647 1.37635398 188.16966176 C1.38181284 196.06202825 1.39898482 203.95418381 1.43166587 211.84648529 C1.45552639 217.92218895 1.45778481 223.99771532 1.45243073 230.07347107 C1.45352215 232.54842162 1.46135684 235.02338091 1.4768219 237.49828339 C1.58314284 255.40659461 0.43462489 272.90061645 -6.1875 289.75 C-6.48229248 290.52037598 -6.77708496 291.29075195 -7.08081055 292.08447266 C-16.95288452 316.97304247 -35.12044884 339.03674451 -58 353 C-59.0725 353.68320312 -60.145 354.36640625 -61.25 355.0703125 C-90.61751141 372.94914468 -126.40477483 376.45271443 -159.58544922 368.58007812 C-181.2845357 362.92813453 -199.91684224 351.40271647 -216 336 C-217.2684375 334.7934375 -217.2684375 334.7934375 -218.5625 333.5625 C-219.366875 332.716875 -220.17125 331.87125 -221 331 C-221.96292969 330.02933594 -221.96292969 330.02933594 -222.9453125 329.0390625 C-230.86903088 320.72882127 -245 304.04864105 -245 292 C-244.29617188 291.92483154 -243.59234375 291.84966309 -242.8671875 291.7722168 C-197.79560833 286.90686927 -156.69572902 274.83750867 -123 243 C-121.64991542 241.84935973 -120.29588411 240.7033304 -118.9375 239.5625 C-99.92405108 222.86869185 -87.04343979 199.88571028 -77 177 C-76.55696533 175.99332275 -76.55696533 175.99332275 -76.10498047 174.96630859 C-68.49610169 157.28408234 -63.77744351 136.30306254 -64.05078125 117.03125 C-64.16526555 100.63261805 -64.16526555 100.63261805 -60.80859375 95.9296875 C-57.96325531 93.91143631 -55.1701321 92.44477619 -52 91 C-25.99550425 73.52752031 -8.90975432 44.60723469 -2.1875 14.4375 C-1.24669338 9.63938624 -0.48647162 4.86471619 0 0 Z " fill="#00B950" transform="translate(511,140)"/>
<path d="M0 0 C29.56755427 -0.84478726 58.71617565 13.9933549 79.9765625 33.62890625 C103.2531229 55.73779217 119.18588059 86.13751111 120.28125 118.62890625 C120.53358262 131.72806821 120.09727464 144.25242058 117 157 C116.7834375 157.97066406 116.566875 158.94132813 116.34375 159.94140625 C111.00509249 181.77270213 99.36749524 200.81191035 84 217 C83.12085938 217.93199219 82.24171875 218.86398438 81.3359375 219.82421875 C73.64542022 227.76386546 65.57140754 233.59565648 56 239 C55.91024902 238.26700684 55.82049805 237.53401367 55.72802734 236.77880859 C51.18635124 200.51892628 40.79489669 169.19684466 20 139 C22.76198588 136.84338089 25.56655324 135.07856481 28.625 133.375 C34.42531966 129.92385251 39.19161982 125.71074809 44 121 C44.62777344 120.40832031 45.25554687 119.81664063 45.90234375 119.20703125 C58.68151545 106.08012699 63.3125 86.85497752 63.3125 69.11572266 C62.99651097 51.31620418 55.38025067 34.10811645 42.78125 21.6171875 C30.67504537 10.22511291 16.69459755 2.81463017 0 1 C0 0.67 0 0.34 0 0 Z " fill="#00D264" transform="translate(392,0)"/>
<path d="M0 0 C0.91136719 -0.03738281 1.82273438 -0.07476562 2.76171875 -0.11328125 C3.64214844 -0.12488281 4.52257812 -0.13648438 5.4296875 -0.1484375 C6.6360083 -0.1781665 6.6360083 -0.1781665 7.86669922 -0.20849609 C11.28719915 0.67528713 12.18785389 2.46151505 14.125 5.375 C15.67461077 8.04639933 17.09308719 10.77260344 18.48828125 13.52734375 C18.88452194 14.30509659 19.28076263 15.08284943 19.68901062 15.88417053 C20.51999097 17.52227745 21.3476363 19.16207998 22.17211914 20.8034668 C23.43569786 23.30892666 24.72226306 25.80169022 26.00976562 28.29492188 C26.81654829 29.8925007 27.62193509 31.49078537 28.42578125 33.08984375 C29.00529289 34.20104836 29.00529289 34.20104836 29.59651184 35.33470154 C31.76909826 39.73662938 32.64829056 42.47085959 31.125 47.375 C29.8828125 49.32421875 29.8828125 49.32421875 28.25 51.0625 C27.63253906 51.73925781 27.01507813 52.41601562 26.37890625 53.11328125 C24.70919552 54.78877953 22.97716005 56.40266342 21.21484375 57.98046875 C14.77518816 63.4363288 14.77518816 63.4363288 12.0625 71.0625 C13.78414947 84.64201017 21.26347848 99.53277952 30.90234375 109.14453125 C33.125 111.375 33.125 111.375 33.125 113.375 C33.69734375 113.63023437 34.2696875 113.88546875 34.859375 114.1484375 C37.36804003 115.50657685 39.23166849 117.1189643 41.375 119 C45.76599402 122.57543049 50.2702959 125.2358913 55.3125 127.75 C56.30975098 128.25007568 56.30975098 128.25007568 57.32714844 128.76025391 C64.40708679 132.18415852 72.20179145 135.23276151 80.125 133.375 C83.63903466 131.01364434 86.3195778 128.08793372 89.125 124.9375 C90.60277546 123.35416915 92.08187538 121.77207308 93.5625 120.19140625 C94.20058594 119.48443604 94.83867187 118.77746582 95.49609375 118.04907227 C97.98653901 115.48957239 99.04545134 115.38169081 102.71557617 115.07299805 C107.68204584 115.1458874 111.33503379 116.94274619 115.67578125 119.20703125 C116.45640427 119.59944504 117.23702728 119.99185883 118.04130554 120.39616394 C119.67954628 121.22347423 121.31394259 122.05843738 122.94458008 122.90063477 C125.43969706 124.18863414 127.94590047 125.45253836 130.45507812 126.71289062 C132.05017697 127.52206342 133.64460269 128.33256476 135.23828125 129.14453125 C135.98515701 129.52277542 136.73203278 129.90101959 137.50154114 130.29072571 C138.19624008 130.65087265 138.89093903 131.01101959 139.60668945 131.38208008 C140.21543411 131.69518631 140.82417877 132.00829254 141.45137024 132.33088684 C143.31606452 133.4941978 144.68908494 134.71258943 146.125 136.375 C146.75828724 139.78097565 146.58832539 143.22924533 146.5625 146.6875 C146.58248047 147.62529297 146.60246094 148.56308594 146.62304688 149.52929688 C146.61893936 155.35786455 146.02830733 158.7746735 142.125 163.375 C141.56941406 164.06464844 141.01382813 164.75429688 140.44140625 165.46484375 C133.09551957 173.20338361 123.67903013 178.98364663 112.8828125 179.54296875 C83.26222349 179.70221923 53.8512235 170.40246024 30.125 152.375 C29.27292969 151.73046875 28.42085937 151.0859375 27.54296875 150.421875 C-2.29181119 127.14066423 -21.17548086 97.05518406 -29.875 60.375 C-30.101875 59.50230469 -30.32875 58.62960938 -30.5625 57.73046875 C-33.06057199 46.7146652 -34.50572172 30.83258508 -29.265625 20.5 C-21.49864076 8.63134993 -14.43914964 0.22276388 0 0 Z " fill="#FDFEFD" transform="translate(207.875,157.625)"/>
<path d="M0 0 C1.43386519 29.58010775 -9.50077651 60.33094719 -27 84 C-27.57363281 84.78375 -28.14726562 85.5675 -28.73828125 86.375 C-33.1513882 92.2185623 -38.01097586 97.64528822 -43 103 C-43.62519531 103.67933594 -44.25039063 104.35867188 -44.89453125 105.05859375 C-66.55757592 127.72497944 -101.92659631 145.76857254 -133.48974609 147.15307617 C-137.22462665 147.1956018 -140.95275987 147.17533864 -144.6875 147.125 C-145.97333984 147.11597656 -147.25917969 147.10695313 -148.58398438 147.09765625 C-151.72285732 147.0743189 -154.86132476 147.04158033 -158 147 C-160.490201 132.38011025 -159.708708 117.30956434 -156 103 C-155.70996094 101.74832031 -155.41992188 100.49664062 -155.12109375 99.20703125 C-153.0116459 90.54858629 -150.01712679 82.94052061 -146 75 C-144.7625 75.391875 -143.525 75.78375 -142.25 76.1875 C-136.86582855 77.79505976 -131.44235252 79.23008163 -126 80.625 C-125.17016602 80.84309326 -124.34033203 81.06118652 -123.48535156 81.28588867 C-107.73023213 85.26800285 -91.42301539 86.36732446 -76.9375 78.3125 C-70.84580554 74.50162718 -64.8774893 69.74359632 -62 63 C-61.46710283 59.53396328 -61.44662809 56.06511345 -61.375 52.5625 C-61.31699219 51.62083984 -61.25898438 50.67917969 -61.19921875 49.70898438 C-61.03504105 44.69494198 -61.03504105 44.69494198 -63.3527832 40.46118164 C-65.4960468 39.06436209 -67.66273346 38.04299971 -70 37 C-72.14542668 35.91452841 -74.28988504 34.82714174 -76.43359375 33.73828125 C-79.37090473 32.29530445 -82.31123791 30.85891935 -85.25561523 29.43041992 C-87.00491948 28.57978435 -88.75057256 27.72165296 -90.49609375 26.86328125 C-91.52919678 26.36094971 -92.5622998 25.85861816 -93.62670898 25.34106445 C-96 24 -96 24 -97 22 C-75.88705209 10.23164868 -55.6998951 4.17463343 -31.5 3.625 C-20.99228068 3.332251 -10.22502031 0 0 0 Z " fill="#00B950" transform="translate(415,252)"/>
<path d="M0 0 C0.53882813 0.43489746 1.07765625 0.86979492 1.6328125 1.31787109 C3.38974111 2.74242111 5.13489131 4.17996172 6.875 5.625 C7.41108887 6.06835693 7.94717773 6.51171387 8.49951172 6.96850586 C9.26932373 7.6221814 9.26932373 7.6221814 10.0546875 8.2890625 C10.50312012 8.66756348 10.95155273 9.04606445 11.41357422 9.43603516 C13.80558361 11.79417799 15.85924748 14.41216324 18 17 C17.23360199 17.00238835 16.46720398 17.00477671 15.67758179 17.00723743 C-3.08259251 17.06670841 -21.84263884 17.14245889 -40.60267639 17.23571491 C-49.6753726 17.28043392 -58.74803165 17.31990161 -67.82080078 17.34643555 C-75.7405504 17.36961135 -83.66017997 17.40322174 -91.57983398 17.44870156 C-95.7624074 17.47237372 -99.94486388 17.49127072 -104.12750244 17.49761391 C-127.36248805 17.53748468 -150.39563825 17.93422892 -172.90527344 24.40673828 C-175.25465851 25.07212356 -177.61432782 25.69042629 -179.9765625 26.30859375 C-190.7125193 29.17686571 -200.83929978 32.7584706 -210.99609375 37.265625 C-214.27416621 38.71910265 -217.57209392 39.93523044 -221 41 C-207.36060054 11.83730613 -174.54770044 -11.06548148 -145.25 -21.9375 C-97.37198664 -38.8917354 -40.1583991 -32.68845879 0 0 Z " fill="#01EB78" transform="translate(356,127)"/>
</svg>
